<svg width="26" height="26" viewBox="0 0 26 26" fill="none" xmlns="http://www.w3.org/2000/svg">
<g id="Icon / Refresh">
<path id="Vector" d="M20.9928 14.6677C20.7599 14.5951 20.5077 14.6175 20.2912 14.7301C20.0748 14.8426 19.9116 15.0362 19.8372 15.2686C19.4005 16.6039 18.5491 17.765 17.4069 18.583C16.2646 19.4011 14.8912 19.8333 13.4863 19.8168C11.7487 19.8365 10.0742 19.1664 8.82992 17.9533C7.58566 16.7403 6.87324 15.0833 6.84888 13.3457C6.87324 11.6082 7.58566 9.95118 8.82992 8.73811C10.0742 7.52504 11.7487 6.85491 13.4863 6.87466C15.0556 6.87087 16.5767 7.41713 17.785 8.41847L15.7789 8.08567C15.6587 8.06589 15.5358 8.07007 15.4172 8.09797C15.2986 8.12587 15.1866 8.17694 15.0878 8.24825C14.989 8.31956 14.9053 8.40969 14.8415 8.51347C14.7776 8.61725 14.7349 8.73262 14.7158 8.85296C14.6961 8.97318 14.7002 9.09613 14.7281 9.21474C14.756 9.33334 14.8071 9.44526 14.8784 9.54406C14.9497 9.64286 15.0399 9.72658 15.1436 9.79043C15.2474 9.85427 15.3628 9.89696 15.4831 9.91606L19.4027 10.5632H19.5599C19.6671 10.563 19.7734 10.5443 19.8742 10.5077C19.9081 10.4948 19.9394 10.4761 19.9667 10.4522C20.0329 10.4276 20.0952 10.3933 20.1515 10.3505L20.2347 10.2489C20.2347 10.2026 20.3179 10.1657 20.3549 10.1102C20.3919 10.0547 20.3549 10.0177 20.4011 9.98077C20.4267 9.92693 20.4483 9.87132 20.4658 9.81437L21.1592 6.11662C21.1822 5.99522 21.1812 5.87047 21.156 5.74948C21.1309 5.6285 21.0821 5.51365 21.0126 5.4115C20.9431 5.30935 20.8541 5.22189 20.7508 5.15412C20.6474 5.08636 20.5318 5.0396 20.4104 5.01654C20.289 4.99347 20.1642 4.99454 20.0432 5.01969C19.9223 5.04484 19.8074 5.09357 19.7053 5.1631C19.499 5.30353 19.3569 5.52016 19.3103 5.76533L19.0607 7.10577C17.5132 5.76463 15.5341 5.02618 13.4863 5.02578C11.2584 5.00606 9.1136 5.87099 7.52261 7.43078C5.93162 8.99057 5.0244 11.1178 5 13.3457C5.0244 15.5736 5.93162 17.7009 7.52261 19.2607C9.1136 20.8205 11.2584 21.6854 13.4863 21.6657C15.2919 21.6934 17.0587 21.1407 18.5265 20.0889C19.9943 19.0371 21.0857 17.5418 21.6399 15.8232C21.675 15.7049 21.686 15.5807 21.6723 15.458C21.6586 15.3353 21.6204 15.2166 21.5601 15.1089C21.4998 15.0012 21.4185 14.9067 21.3211 14.8309C21.2236 14.7551 21.112 14.6996 20.9928 14.6677Z" fill="#949494"/>
</g>
</svg>
