<svg width="18" height="18" viewBox="0 0 18 18" fill="none" xmlns="http://www.w3.org/2000/svg">
<g id="01 align center">
<path id="Vector" d="M17.9635 16.9102L13.2991 12.2458C14.5107 10.7639 15.1064 8.87304 14.963 6.96425C14.8196 5.05547 13.948 3.27483 12.5285 1.99065C11.1091 0.706464 9.25032 0.0169883 7.33675 0.0648334C5.42319 0.112679 3.60122 0.894184 2.2477 2.2477C0.894184 3.60122 0.112679 5.42319 0.0648334 7.33675C0.0169883 9.25032 0.706464 11.1091 1.99065 12.5285C3.27483 13.948 5.05547 14.8196 6.96425 14.963C8.87304 15.1064 10.7639 14.5107 12.2458 13.2991L16.9102 17.9635L17.9635 16.9102ZM7.53516 13.4942C6.35657 13.4942 5.20445 13.1447 4.22449 12.4899C3.24453 11.8351 2.48074 10.9045 2.02971 9.81559C1.57869 8.72672 1.46068 7.52855 1.69061 6.37261C1.92054 5.21666 2.48808 4.15486 3.32147 3.32147C4.15486 2.48808 5.21666 1.92054 6.37261 1.69061C7.52855 1.46068 8.72672 1.57869 9.81559 2.02971C10.9045 2.48074 11.8351 3.24453 12.4899 4.22449C13.1447 5.20445 13.4942 6.35657 13.4942 7.53516C13.4924 9.11506 12.864 10.6297 11.7469 11.7469C10.6297 12.864 9.11506 13.4924 7.53516 13.4942Z" fill="#D1D1D1"/>
</g>
</svg>
