<svg width="32" height="32" viewBox="0 0 32 32" fill="none" xmlns="http://www.w3.org/2000/svg">
<g clip-path="url(#clip0_4_590)">
<path d="M16 0C7.16356 0 0 7.16344 0 16C0 24.8366 7.16356 32 16 32C24.8364 32 32 24.8366 32 16C32 7.16344 24.8364 0 16 0ZM14 20C14 20.5523 13.5523 21 13 21H11C10.4477 21 10 20.5523 10 20V12C10 11.4477 10.4477 11 11 11H13C13.5523 11 14 11.4477 14 12V20ZM22 20C22 20.5523 21.5523 21 21 21H19C18.4477 21 18 20.5523 18 20V12C18 11.4477 18.4477 11 19 11H21C21.5523 11 22 11.4477 22 12V20Z" fill="#6B3EB4"/>
</g>
<defs>
<clipPath id="clip0_4_590">
<rect width="32" height="32" fill="white"/>
</clipPath>
</defs>
</svg>
