<svg width="33" height="33" viewBox="0 0 33 33" fill="none" xmlns="http://www.w3.org/2000/svg">
<path d="M16.167 0.166656C13.0025 0.166656 9.90906 1.10504 7.27787 2.86314C4.64669 4.62125 2.59593 7.1201 1.38493 10.0437C0.173925 12.9673 -0.142929 16.1844 0.474435 19.2881C1.0918 22.3918 2.61565 25.2427 4.85329 27.4804C7.09093 29.718 9.94186 31.2419 13.0456 31.8592C16.1492 32.4766 19.3663 32.1597 22.2899 30.9487C25.2135 29.7377 27.7124 27.687 29.4705 25.0558C31.2286 22.4246 32.167 19.3312 32.167 16.1667C32.167 14.0655 31.7531 11.9849 30.9491 10.0437C30.145 8.10251 28.9664 6.33868 27.4807 4.85295C25.995 3.36721 24.2311 2.18866 22.2899 1.38458C20.3487 0.580509 18.2681 0.166656 16.167 0.166656ZM13.0456 21.4372V10.0535L21.814 16.1667L13.0456 21.4372Z" fill="#6B3EB4"/>
</svg>
