<svg width="38" height="38" viewBox="0 0 38 38" fill="none" xmlns="http://www.w3.org/2000/svg">
<path d="M19.167 3.16666C16.0025 3.16666 12.9091 4.10504 10.2779 5.86314C7.64669 7.62125 5.59593 10.1201 4.38493 13.0437C3.17392 15.9673 2.85707 19.1844 3.47443 22.2881C4.0918 25.3918 5.61565 28.2427 7.85329 30.4804C10.0909 32.718 12.9419 34.2419 16.0456 34.8592C19.1492 35.4766 22.3663 35.1597 25.2899 33.9487C28.2135 32.7377 30.7124 30.687 32.4705 28.0558C34.2286 25.4246 35.167 22.3312 35.167 19.1667C35.167 17.0655 34.7531 14.9849 33.9491 13.0437C33.145 11.1025 31.9664 9.33869 30.4807 7.85295C28.995 6.36721 27.2311 5.18866 25.2899 4.38458C23.3487 3.58051 21.2681 3.16666 19.167 3.16666ZM16.0456 24.4372V13.0535L24.814 19.1667L16.0456 24.4372Z" fill="#6B3EB4"/>
</svg>
