<svg width="26" height="26" viewBox="0 0 26 26" fill="none" xmlns="http://www.w3.org/2000/svg">
<path fill-rule="evenodd" clip-rule="evenodd" d="M13.8732 16.5809L14.6338 15.7838C14.9021 15.5034 14.9021 15.0507 14.6338 14.7703C14.3677 14.4899 13.9321 14.4899 13.6637 14.7703L11.2929 17.2475L13.6637 19.7248C13.9321 20.0028 14.3677 20.0028 14.6338 19.7248C14.9021 19.4444 14.9021 18.9893 14.6338 18.7088L13.8732 17.9142H16.6606C18.4664 17.9142 19.9331 16.3791 19.9331 14.4923V9.48611C19.9331 7.59926 18.4664 6.06665 16.6606 6.06665H9.34124C7.53316 6.06665 6.06641 7.59926 6.06641 9.48611V14.4923C6.06641 16.3791 7.53316 17.9142 9.34124 17.9142H9.99105V16.5809H9.34124C8.23708 16.5809 7.3425 15.6436 7.3425 14.4923V9.48611C7.3425 8.33481 8.23708 7.39757 9.34124 7.39757H12.9436H16.6606C17.7624 7.39757 18.6596 8.33481 18.6596 9.48611V14.4923C18.6596 15.6436 17.7624 16.5809 16.6606 16.5809H13.8732Z" fill="#D1D1D1"/>
</svg>
