<svg width="26" height="26" viewBox="0 0 26 26" fill="none" xmlns="http://www.w3.org/2000/svg">
<path d="M16.2307 15.6482C15.9279 15.5452 15.5413 15.277 15.1086 14.8101C14.7372 14.4183 14.354 13.9135 13.9621 13.3632C13.868 13.4979 13.7744 13.6325 13.6803 13.7698C13.424 14.1437 13.1619 14.5213 12.8948 14.8925C13.8278 16.1124 14.796 17.31 16.2317 17.5075V18.9333L19.9336 16.6309L16.2312 14.3269V15.6482H16.2307ZM10.0597 11.0434C10.4302 11.4341 10.8134 11.939 11.2063 12.4892C11.3014 12.3509 11.3974 12.2146 11.4935 12.0731C11.7495 11.6984 12.0095 11.327 12.2735 10.9589C11.2779 9.65769 10.2484 8.3676 8.64955 8.30582H6.93457V10.1541H8.64955C8.97049 10.1398 9.47372 10.4102 10.0597 11.0428V11.0434ZM16.2307 10.2021V11.5413L19.9331 9.23735L16.2307 6.93335V8.33117C15.2978 8.44734 14.5525 9.04301 13.9033 9.7274C12.8267 10.8807 11.886 12.4565 10.9574 13.7091C10.0426 14.996 9.12484 15.7617 8.64857 15.6999H6.93359V17.5482H8.64857C9.7192 17.5324 10.5497 16.8797 11.2651 16.1261C12.3402 14.9728 13.2819 13.3975 14.21 12.1455C14.966 11.0803 15.7211 10.3817 16.2307 10.2021Z" fill="#D1D1D1"/>
</svg>
