<svg width="26" height="26" viewBox="0 0 26 26" fill="none" xmlns="http://www.w3.org/2000/svg">
<path d="M12.0073 4.69742C12.2755 4.4636 12.6306 4.33331 12.9997 4.33331C13.3687 4.33331 13.7238 4.4636 13.992 4.69742L20.9889 10.797C21.4222 11.1739 21.6663 11.7001 21.6663 12.2489V19.6685C21.6663 20.1985 21.4381 20.7067 21.0317 21.0814C20.6254 21.4561 20.0743 21.6666 19.4997 21.6666H16.6108C16.3261 21.6666 16.0443 21.6149 15.7813 21.5144C15.5183 21.4139 15.2794 21.2666 15.0782 21.0809C14.877 20.8953 14.7174 20.6748 14.6086 20.4323C14.4998 20.1897 14.4439 19.9297 14.4441 19.6672V16.337C14.4441 16.1604 14.368 15.991 14.2326 15.8661C14.0971 15.7412 13.9134 15.671 13.7219 15.671H12.2775C12.0859 15.671 11.9022 15.7412 11.7668 15.8661C11.6313 15.991 11.5552 16.1604 11.5552 16.337V19.6672C11.5552 20.1971 11.327 20.7054 10.9206 21.0801C10.5143 21.4548 9.9632 21.6653 9.38856 21.6653H6.49967C5.92504 21.6653 5.37394 21.4548 4.96761 21.0801C4.56128 20.7054 4.33301 20.1971 4.33301 19.6672V12.2476C4.33301 11.6988 4.57856 11.1726 5.0119 10.7956L12.0073 4.69476V4.69742ZM12.9997 5.66451L6.00279 11.7654C5.93175 11.8275 5.87515 11.9022 5.83642 11.9851C5.79768 12.068 5.77762 12.1573 5.77745 12.2476V19.6672C5.77745 19.8439 5.85354 20.0133 5.98899 20.1382C6.12443 20.2631 6.30813 20.3332 6.49967 20.3332H9.38856C9.58011 20.3332 9.76381 20.2631 9.89925 20.1382C10.0347 20.0133 10.1108 19.8439 10.1108 19.6672V16.337C10.1108 15.8071 10.3391 15.2989 10.7454 14.9242C11.1517 14.5494 11.7028 14.3389 12.2775 14.3389H13.7219C14.2965 14.3389 14.8476 14.5494 15.254 14.9242C15.6603 15.2989 15.8886 15.8071 15.8886 16.337V19.6672C15.8886 19.8439 15.9647 20.0133 16.1001 20.1382C16.2355 20.2631 16.4192 20.3332 16.6108 20.3332H19.4997C19.6912 20.3332 19.8749 20.2631 20.0104 20.1382C20.1458 20.0133 20.2219 19.8439 20.2219 19.6672V12.2476C20.2219 12.1571 20.202 12.0676 20.1632 11.9844C20.1245 11.9013 20.0678 11.8263 19.9966 11.764L12.9997 5.66451Z" fill="#D1D1D1"/>
</svg>
